<svg width="20" height="14" viewBox="0 0 20 14" fill="none" xmlns="http://www.w3.org/2000/svg">
<path d="M18.1461 0.367996H17.7364C17.3067 0.367996 16.8969 0.543004 16.5971 0.854004L13.299 4.237V2.026C13.299 1.111 12.5694 0.367996 11.68 0.367996H1.97573C1.07626 0.367996 0.356689 1.111 0.356689 2.026V11.974C0.356689 12.889 1.07626 13.632 1.97573 13.632H11.68C12.5694 13.632 13.299 12.889 13.299 11.974V9.763L16.5971 13.146C16.8969 13.457 17.3067 13.632 17.7364 13.632H18.1461C19.0456 13.632 19.7651 12.889 19.7651 11.974V2.026C19.7651 1.111 19.0456 0.367996 18.1461 0.367996Z" fill="#808080"/>
</svg>
