<svg width="13" height="12" viewBox="0 0 13 12" fill="none" xmlns="http://www.w3.org/2000/svg">
<path d="M12.2 10.375L9.98531 8.038C9.88537 7.933 9.75046 7.874 9.60755 7.874H9.24576C9.8594 7.047 10.2232 6.006 10.2232 4.875C10.2232 2.182 8.15539 0 5.6039 0C3.05241 0 0.984619 2.182 0.984619 4.875C0.984619 7.567 3.05241 9.749 5.6039 9.749C6.67627 9.749 7.66268 9.365 8.44621 8.718V9.1C8.44621 9.25 8.50219 9.393 8.60213 9.498L10.8158 11.835C11.0247 12.055 11.3625 12.055 11.5694 11.835L12.198 11.172C12.4059 10.951 12.4059 10.595 12.2 10.375ZM5.6039 7.874C4.03383 7.874 2.76058 6.534 2.76058 4.875C2.76058 3.218 4.03183 1.875 5.6039 1.875C7.17397 1.875 8.44621 3.215 8.44621 4.875C8.44621 6.531 7.17597 7.874 5.6039 7.874Z" fill="#999999"/>
</svg>
