<svg width="18" height="17" viewBox="0 0 18 17" fill="none" xmlns="http://www.w3.org/2000/svg">
<path d="M9.25694 0C4.56372 0 0.761963 3.804 0.761963 8.5C0.761963 13.196 4.56372 17 9.25694 17C13.9502 17 17.7519 13.196 17.7519 8.5C17.7519 3.804 13.9502 0 9.25694 0ZM9.25694 15.355C5.47918 15.355 2.40601 12.28 2.40601 8.5C2.40601 4.72 5.47918 1.645 9.25694 1.645C13.0347 1.645 16.1079 4.72 16.1079 8.5C16.1079 12.28 13.0347 15.355 9.25694 15.355ZM6.51656 7.952C7.1232 7.952 7.61289 7.461 7.61289 6.855C7.61289 6.248 7.1232 5.758 6.51656 5.758C5.90992 5.758 5.42022 6.248 5.42022 6.855C5.42022 7.461 5.90992 7.952 6.51656 7.952ZM11.9973 7.952C12.604 7.952 13.0937 7.461 13.0937 6.855C13.0937 6.248 12.604 5.758 11.9973 5.758C11.3907 5.758 10.901 6.248 10.901 6.855C10.901 7.461 11.3907 7.952 11.9973 7.952ZM12.1343 10.44C11.4217 11.297 10.3703 11.79 9.25694 11.79C8.1436 11.79 7.09219 11.3 6.37961 10.44C6.08879 10.09 5.56814 10.046 5.22234 10.334C4.87255 10.625 4.82758 11.143 5.11541 11.492C6.1428 12.726 7.65389 13.432 9.25694 13.432C10.86 13.432 12.3711 12.726 13.3985 11.492C13.6893 11.143 13.6413 10.625 13.2915 10.334C12.9457 10.046 12.4251 10.09 12.1343 10.44Z" fill="#B346BD"/>
</svg>
