<svg width="18" height="16" viewBox="0 0 18 16" fill="none" xmlns="http://www.w3.org/2000/svg">
<path d="M15.4949 0H1.93286C0.913467 0 0.0839844 0.768005 0.0839844 1.714V14.286C0.0839844 15.233 0.913467 16 1.93286 16H15.4949C16.5143 16 17.3438 15.233 17.3438 14.286V1.714C17.3438 0.768005 16.5143 0 15.4949 0ZM15.4949 14.286H1.93286V1.714H15.4949V14.286ZM14.1157 5.653L7.46961 11.767C7.27972 11.934 6.98986 11.933 6.80997 11.765L3.31205 8.496C3.13215 8.328 3.13215 8.057 3.31205 7.89L4.19153 7.08501C4.37142 6.91901 4.66127 6.92 4.84117 7.088L7.14973 9.241L12.5966 4.233C12.7765 4.066 13.0663 4.067 13.2462 4.235L14.1157 5.047C14.2956 5.215 14.2956 5.486 14.1157 5.653Z" fill="#808080"/>
</svg>
