<svg width="22" height="19" viewBox="0 0 22 19" fill="none" xmlns="http://www.w3.org/2000/svg">
<path d="M21.0135 14.739V15.91C21.0135 16.232 20.7537 16.496 20.4239 16.496H18.7449V18.178C18.7449 18.5 18.4851 18.764 18.1652 18.764H16.9959C16.6661 18.764 16.4063 18.5 16.4063 18.178V16.496H14.7272C14.4074 16.496 14.1376 16.232 14.1376 15.91V14.739C14.1376 14.417 14.4074 14.154 14.7272 14.154H16.4063V12.471C16.4063 12.149 16.6661 11.886 16.9959 11.886H18.1652C18.4851 11.886 18.7449 12.149 18.7449 12.471V14.154H20.4239C20.7537 14.154 21.0135 14.417 21.0135 14.739ZM0.615498 2.44701H15.8167C16.1465 2.44701 16.4063 2.18299 16.4063 1.86099V0.690994C16.4063 0.368994 16.1465 0.104996 15.8167 0.104996H0.615498C0.285692 0.104996 0.0258789 0.368994 0.0258789 0.690994V1.86099C0.0258789 2.18699 0.285692 2.44701 0.615498 2.44701ZM0.615498 7.13H15.8167C16.1465 7.13 16.4063 6.86601 16.4063 6.54401V5.37399C16.4063 5.05199 16.1465 4.78799 15.8167 4.78799H0.615498C0.285692 4.78799 0.0258789 5.05199 0.0258789 5.37399V6.54401C0.0258789 6.87001 0.285692 7.13 0.615498 7.13ZM0.0258789 14.739V15.91C0.0258789 16.232 0.285692 16.496 0.615498 16.496H11.6891V14.154H0.615498C0.285692 14.154 0.0258789 14.417 0.0258789 14.739ZM0.0258789 10.056V11.227C0.0258789 11.549 0.285692 11.813 0.615498 11.813H14.0477V9.47099H0.615498C0.285692 9.47099 0.0258789 9.735 0.0258789 10.056Z" fill="black"/>
</svg>
