<svg width="22" height="18" viewBox="0 0 22 18" fill="none" xmlns="http://www.w3.org/2000/svg">
<path d="M20.2951 0H1.78603C0.886558 0 0.156982 0.745993 0.156982 1.66499V12.767C0.156982 13.687 0.886558 14.433 1.78603 14.433H10.1211V15.543H4.68435C4.0747 15.543 3.59502 16.039 3.59502 16.653C3.59502 17.267 4.0747 17.763 4.68435 17.763H17.7466C18.3462 17.763 18.836 17.267 18.836 16.653C18.836 16.039 18.3462 15.543 17.7466 15.543H12.2999V14.433H20.2951C21.1946 14.433 21.9242 13.687 21.9242 12.767V1.66499C21.9242 0.745993 21.1946 0 20.2951 0ZM19.7554 12.212H2.32575V2.22H19.7554V12.212Z" fill="#808080"/>
</svg>
