<svg width="14" height="10" viewBox="0 0 14 10" fill="none" xmlns="http://www.w3.org/2000/svg">
<path d="M7.36944 2.52901C7.12958 2.53401 6.8927 2.57 6.66483 2.642C6.77177 2.827 6.82776 3.037 6.82776 3.252C6.82776 3.949 6.26109 4.51601 5.5645 4.51601C5.35063 4.51301 5.14074 4.457 4.95585 4.353C4.57008 5.689 5.34162 7.089 6.67883 7.472C8.01604 7.858 9.41323 7.086 9.799 5.748C10.1838 4.409 9.41322 3.01201 8.07501 2.62601C7.84515 2.56101 7.60829 2.52901 7.36944 2.52901ZM13.7866 4.728C12.5644 2.34 10.1418 0.723999 7.36944 0.723999C4.59707 0.723999 2.17451 2.34 0.951228 4.728C0.848289 4.935 0.848289 5.17899 0.951228 5.38699C2.17451 7.77499 4.59707 9.39101 7.36944 9.39101C10.1418 9.39101 12.5644 7.77499 13.7866 5.38699C13.8926 5.17899 13.8926 4.935 13.7866 4.728ZM7.36944 8.30701C5.14475 8.30701 3.10396 7.06601 2.00261 5.05701C3.10396 3.04801 5.14275 1.80701 7.36944 1.80701C9.59512 1.80701 11.6349 3.04801 12.7353 5.05701C11.6349 7.06601 9.59512 8.30701 7.36944 8.30701Z" fill="#3E3E3E"/>
</svg>
